#!OML:ASF F:\VICON\USERDATA\INSTALL\rory3\rory3.ASF
:FULLY-SPECIFIED
:DEGREES
2942
root 0.117198 16.6436 -2.04015 38.13 0.347681 10.0769
lowerback 24.5724 0.366235 -0.464243
upperback 3.84884 0.487493 1.12232
thorax -9.44484 0.270062 1.35349
lowerneck -2.60984 -12.6587 -19.6186
upperneck -19.3841 -14.4869 27.8894
head -1.15265 -7.7167 11.841
rclavicle -6.36111e-015 1.59028e-015
rhumerus 25.28 12.089 -82.8571
rradius 99.7873
rwrist 29.8755
rhand 12.9787 2.84147
rfingers 7.12502
rthumb 37.9457 -22.9725
lclavicle -6.36111e-015 1.59028e-015
lhumerus 30.8476 -14.6692 73.2469
lradius 101.539
lwrist -12.9941
lhand 14.4742 36.1368
lfingers 7.12502
lthumb 39.3565 61.5538
rfemur -64.8676 -1.50566 2.79093
rtibia 45.1212
rfoot -16.9657 -9.63215
rtoes -20.3648
lfemur -60.642 -10.1342 -21.2117
ltibia 32.8363
lfoot -10.9025 0.477345
ltoes -20.0155
2943
root 0.0976105 16.6187 -2.0471 38.0612 0.700006 11.0591
lowerback 24.5266 0.654604 -0.734942
upperback 3.89456 0.818747 1.39337
thorax -9.38663 0.438599 1.70389
lowerneck -2.23747 -12.8952 -19.7214
upperneck -19.9101 -14.7826 28.0922
head -1.25836 -7.90562 11.944
rclavicle 3.18055e-014 3.18055e-015
rhumerus 25.411 11.8259 -83.2829
rradius 99.7279
rwrist 30.0541
rhand 12.9417 2.7884
rfingers 7.12502
rthumb 37.9108 -23.035
lclavicle 3.18055e-014 3.18055e-015
lhumerus 31.7588 -14.8011 71.4014
lradius 100.926
lwrist -13.0016
lhand 14.3669 35.8206
lfingers 7.12502
lthumb 39.2554 61.267
rfemur -65.0595 -2.21016 2.08523
rtibia 46.1878
rfoot -17.6067 -9.84705
rtoes -19.2608
lfemur -60.4318 -10.8371 -21.9247
ltibia 32.5761
lfoot -10.6544 0.10528
ltoes -22.2548
2944
root 0.0912425 16.5837 -2.06157 37.8589 0.990264 11.9012
lowerback 24.7044 0.885661 -0.841287
upperback 3.9691 1.11424 1.63286
thorax -9.41402 0.584511 1.93584
lowerneck -1.98023 -13.1244 -19.9249
upperneck -20.3537 -15.0537 28.4161
head -1.30111 -8.07499 12.0945
rclavicle -1.59028e-015 -1.90833e-014
rhumerus 25.6238 11.673 -83.7361
rradius 99.6483
rwrist 30.1985
rhand 12.6321 2.78756
rfingers 7.12502
rthumb 37.6183 -23.1145
lclavicle -1.59028e-015 -1.90833e-014
lhumerus 32.6881 -14.7681 69.7327
lradius 100.286
lwrist -12.9379
lhand 13.7991 35.2236
lfingers 7.12502
lthumb 38.7201 60.8232
rfemur -65.1819 -2.91099 1.52427
rtibia 47.2339
rfoot -18.152 -9.94901
rtoes -18.3426
lfemur -60.2513 -11.5789 -22.4823
ltibia 32.5315
lfoot -10.6396 -0.236746
ltoes -20.7746
2945
root 0.0922601 16.5491 -2.08231 37.4141 1.20645 12.6999
lowerback 25.2676 1.07166 -0.898451
upperback 4.05406 1.35621 1.80328
thorax -9.62859 0.703347 2.07746
lowerneck -1.77237 -13.3316 -19.9776
upperneck -20.6935 -15.3025 28.6585
head -1.33434 -8.23325 12.1848
rclavicle 6.36111e-015 6.36111e-015
rhumerus 25.7016 11.5551 -84.3661
rradius 99.8343
rwrist 30.2434
rhand 12.8214 2.70084
rfingers 7.12502
rthumb 37.7972 -23.1533
lclavicle 6.36111e-015 6.36111e-015
lhumerus 33.4878 -14.805 68.1104
lradius 99.7822
lwrist -12.7437
lhand 12.5943 34.9975
lfingers 7.12502
lthumb 37.5826 60.909
rfemur -65.0477 -3.52701 0.960548
rtibia 48.1466
rfoot -18.4631 -10.0366
rtoes -18.311
lfemur -59.8895 -12.243 -23.1349
ltibia 32.6009
lfoot -10.5763 -0.467454
ltoes -21.2283
2946
root 0.100865 16.5157 -2.10609 36.8486 1.72383 13.3468
lowerback 26.0029 1.06666 -0.542182
upperback 4.13438 1.4725 2.02991
thorax -9.9237 0.751118 2.08273
lowerneck -1.45779 -13.4059 -20.0293
upperneck -21.0897 -15.3819 28.8129
head -1.45322 -8.30756 12.2871
rclavicle -6.36111e-015 2.22639e-014
rhumerus 25.7058 11.5232 -85.0797
rradius 100.142
rwrist 30.3524
rhand 13.5196 2.71984
rfingers 7.12502
rthumb 38.4564 -22.9537
lclavicle -6.36111e-015 2.22639e-014
lhumerus 34.0143 -14.8564 66.7005
lradius 99.4867
lwrist -12.65
lhand 11.5768 35.1676
lfingers 7.12502
lthumb 36.6203 61.3292
rfemur -64.6764 -4.18065 0.653925
rtibia 49.0004
rfoot -18.69 -10.1844
rtoes -19.1344
lfemur -59.5097 -13.0065 -23.5532
ltibia 32.8143
lfoot -10.2905 -0.580818
ltoes -24.5044
2947
root 0.0948026 16.5097 -2.11674 35.404 1.93522 13.6628
lowerback 27.8254 1.19923 -0.425277
upperback 4.40403 1.70671 2.25394
thorax -10.5707 0.859802 2.17586
lowerneck -1.22604 -13.4112 -19.9906
upperneck -21.4378 -15.3545 28.9545
head -1.57977 -8.32762 12.3789
rclavicle -4.77083e-015 -2.8625e-014
rhumerus 25.787 11.6091 -85.9074
rradius 100.365
rwrist 30.3166
rhand 14.4595 2.8788
rfingers 7.12502
rthumb 39.3426 -22.5422
lclavicle -4.77083e-015 -2.8625e-014
lhumerus 34.4796 -14.6386 65.5162
lradius 99.1699
lwrist -12.717
lhand 11.3758 35.346
lfingers 7.12502
lthumb 36.43 61.5557
rfemur -63.4085 -3.98542 0.391811
rtibia 49.7445
rfoot -18.9678 -10.5151
rtoes -20.2565
lfemur -58.1112 -13.392 -23.9432
ltibia 33.1267
lfoot -10.3958 -0.596749
ltoes -25.1502
